<?xml version="1.0" standalone="no"?>
<!DOCTYPE svg PUBLIC "-//W3C//DTD SVG 20010904//EN"
 "http://www.w3.org/TR/2001/REC-SVG-20010904/DTD/svg10.dtd">
<svg version="1.0" xmlns="http://www.w3.org/2000/svg"
 width="572.000000pt" height="572.000000pt" viewBox="0 0 572.000000 572.000000"
 preserveAspectRatio="xMidYMid meet">
<metadata>
Created by potrace 1.11, written by Peter Selinger 2001-2013
</metadata>
<g transform="translate(0.000000,572.000000) scale(0.100000,-0.100000)"
fill="#000000" stroke="none">
<path d="M870 4767 c-14 -7 -43 -25 -65 -39 -102 -65 -210 -108 -329 -134 -37
-8 -71 -16 -75 -19 -4 -2 -1 -50 6 -107 9 -74 12 -293 13 -768 0 -366 5 -906
11 -1201 14 -670 11 -694 -98 -788 -36 -31 -45 -43 -35 -50 16 -9 248 -20 494
-23 167 -1 198 4 198 36 0 6 -13 39 -30 74 -41 86 -52 233 -51 672 1 338 2
346 23 375 111 153 276 284 358 285 38 0 85 -33 104 -74 10 -21 28 -88 41
-149 13 -62 46 -202 74 -312 81 -330 94 -425 89 -663 -3 -144 -1 -207 7 -219
10 -13 32 -14 181 -7 93 4 172 7 175 7 3 -1 79 -5 170 -9 l164 -7 -87 90 c-59
61 -96 109 -114 147 -27 59 -31 77 -139 540 l-65 280 32 35 33 36 -32 -29
c-18 -16 -34 -28 -36 -25 -2 2 -13 45 -25 94 -12 50 -44 173 -72 275 -27 101
-50 194 -50 206 0 30 15 41 205 144 94 51 182 102 197 113 36 26 58 75 58 126
0 35 -6 47 -41 82 -46 46 -107 76 -172 85 l-44 6 -7 -41 c-25 -156 -91 -228
-356 -387 -102 -61 -212 -126 -245 -144 -120 -67 -205 -131 -298 -226 -87 -88
-96 -95 -106 -77 -21 40 -31 150 -25 283 11 279 22 1474 13 1497 -10 27 -15
28 -49 10z"/>
<path d="M1388 4711 c-82 -27 -136 -61 -196 -125 -219 -231 -122 -573 180
-637 80 -18 195 -6 267 26 63 29 146 106 138 128 -6 16 -21 13 -96 -18 -158
-66 -345 8 -413 163 -42 94 -31 240 24 330 23 37 93 82 129 82 14 0 44 -14 67
-31 83 -61 204 -48 239 26 22 47 16 50 -95 58 -48 4 -109 9 -137 12 -34 3 -68
-1 -107 -14z"/>
<path d="M2789 4623 c-13 -16 -12 -17 4 -4 16 13 21 21 13 21 -2 0 -10 -8 -17
-17z"/>
<path d="M2679 4563 c-13 -16 -12 -17 4 -4 16 13 21 21 13 21 -2 0 -10 -8 -17
-17z"/>
<path d="M2864 4508 l-19 -23 23 19 c21 18 27 26 19 26 -2 0 -12 -10 -23 -22z"/>
<path d="M2645 4439 c3 -4 -16 -10 -41 -14 -29 -4 -57 -17 -79 -37 -30 -26
-35 -36 -35 -75 0 -61 22 -98 83 -137 92 -59 157 -115 157 -136 0 -47 -114
-77 -170 -45 -40 23 -76 18 -99 -11 -12 -15 -21 -35 -21 -46 0 -17 7 -18 93
-13 233 14 260 23 297 94 24 48 25 70 4 119 -20 49 -66 95 -137 138 -77 48
-98 87 -54 103 20 8 47 1 129 -34 13 -5 18 1 24 30 3 20 3 40 -2 45 -11 11
-155 29 -149 19z"/>
<path d="M2007 4406 c-124 -45 -181 -167 -142 -302 21 -72 54 -118 104 -144
46 -23 202 -36 313 -26 l76 7 -2 79 c0 43 -5 76 -9 73 -5 -3 -7 56 -6 131 2
113 0 139 -13 152 -16 16 -171 44 -243 43 -22 0 -57 -6 -78 -13z m168 -50 c16
-11 19 -31 23 -150 4 -123 3 -139 -14 -158 -11 -12 -13 -18 -6 -14 11 7 12 4
3 -13 -23 -41 -114 -16 -149 41 -77 124 -26 308 85 308 21 0 48 -6 58 -14z"/>
<path d="M3064 4409 c-43 -12 -102 -73 -130 -133 -28 -60 -32 -139 -9 -192 8
-20 12 -41 8 -48 -3 -6 -3 -8 1 -4 4 3 23 -9 41 -28 19 -19 55 -44 81 -55 43
-20 58 -21 191 -14 114 6 147 4 161 -6 15 -13 16 -12 3 4 -12 15 -11 17 2 17
11 0 13 6 9 22 -4 16 -2 19 9 13 8 -5 5 2 -6 14 -18 21 -20 38 -21 197 0 118
-4 178 -12 186 -13 13 -182 38 -252 37 -25 -1 -59 -5 -76 -10z m160 -52 c9 -7
21 -30 26 -52 12 -50 13 -275 1 -293 -12 -19 -71 -17 -109 2 -50 26 -62 60
-62 183 0 87 4 112 18 129 34 43 91 57 126 31z"/>
<path d="M4380 4206 c0 -2 8 -10 18 -17 15 -13 16 -12 3 4 -13 16 -21 21 -21
13z"/>
<path d="M4690 4136 c0 -2 8 -10 18 -17 15 -13 16 -12 3 4 -13 16 -21 21 -21
13z"/>
<path d="M3505 3910 c10 -11 20 -20 23 -20 3 0 -3 9 -13 20 -10 11 -20 20 -23
20 -3 0 3 -9 13 -20z"/>
<path d="M3579 3882 c-14 -9 -66 -58 -115 -109 -75 -77 -102 -98 -166 -127
-50 -23 -79 -42 -83 -56 -4 -11 -1 -78 5 -149 7 -70 11 -151 9 -180 -2 -28 0
-51 5 -51 4 0 6 -318 4 -707 -5 -707 -5 -708 -28 -781 -33 -104 -39 -101 206
-109 246 -7 252 -4 224 112 -12 51 -40 395 -40 496 0 135 48 232 134 273 62
29 67 23 146 -188 29 -77 79 -201 112 -275 33 -75 80 -185 105 -245 49 -119
62 -143 79 -150 6 -2 108 -10 226 -16 162 -9 221 -9 237 -1 11 7 21 15 21 20
0 4 -50 84 -111 177 -61 93 -135 212 -165 265 -70 124 -206 428 -199 446 2 8
1 12 -4 9 -12 -8 -23 36 -12 47 5 5 62 15 128 23 154 18 170 21 220 50 52 30
73 68 73 129 0 86 -75 189 -133 183 -27 -3 -35 -11 -64 -70 -46 -94 -90 -121
-223 -134 l-71 -7 -42 39 -42 39 38 -41 38 -41 -55 -7 c-31 -3 -81 -16 -112
-27 l-56 -21 -31 28 -32 29 28 -31 29 -32 -89 -49 c-122 -68 -138 -74 -153
-60 -10 9 -11 9 -6 0 4 -7 2 -13 -3 -13 -8 0 -12 83 -13 253 -5 502 2 751 28
1015 7 69 1 75 -47 44z"/>
<path d="M5270 3876 c0 -2 8 -10 18 -17 15 -13 16 -12 3 4 -13 16 -21 21 -21
13z"/>
<path d="M4090 3817 c0 -2 15 -16 33 -33 l32 -29 -29 33 c-28 30 -36 37 -36
29z"/>
<path d="M4280 3786 c0 -2 8 -10 18 -17 15 -13 16 -12 3 4 -13 16 -21 21 -21
13z"/>
<path d="M3060 3735 c13 -14 26 -25 28 -25 3 0 -5 11 -18 25 -13 14 -26 25
-28 25 -3 0 5 -11 18 -25z"/>
<path d="M4450 3666 c0 -2 8 -10 18 -17 15 -13 16 -12 3 4 -13 16 -21 21 -21
13z"/>
<path d="M2190 3546 c0 -2 8 -10 18 -17 15 -13 16 -12 3 4 -13 16 -21 21 -21
13z"/>
<path d="M3960 3546 c0 -2 8 -10 18 -17 15 -13 16 -12 3 4 -13 16 -21 21 -21
13z"/>
<path d="M2150 3527 c0 -2 15 -16 33 -33 l32 -29 -29 33 c-28 30 -36 37 -36
29z"/>
<path d="M3029 3483 l-34 -38 38 34 c20 19 37 36 37 38 0 8 -8 0 -41 -34z"/>
<path d="M3819 3353 c-13 -16 -12 -17 4 -4 16 13 21 21 13 21 -2 0 -10 -8 -17
-17z"/>
<path d="M3869 3333 l-24 -28 28 24 c25 23 32 31 24 31 -2 0 -14 -12 -28 -27z"/>
<path d="M4334 3328 l-29 -33 33 29 c30 28 37 36 29 36 -2 0 -16 -15 -33 -32z"/>
<path d="M4590 3325 c19 -19 36 -35 39 -35 3 0 -10 16 -29 35 -19 19 -36 35
-39 35 -3 0 10 -16 29 -35z"/>
<path d="M2612 3278 c-109 -84 -109 -86 -34 -181 70 -89 79 -97 99 -90 29 11
173 123 173 135 0 27 -122 209 -139 208 -3 -1 -48 -33 -99 -72z"/>
<path d="M5120 3298 c-36 -28 -82 -65 -102 -82 l-37 -31 78 -96 77 -96 85 58
c46 33 90 67 96 77 11 16 4 32 -55 120 -37 56 -69 101 -72 101 -3 0 -34 -23
-70 -51z"/>
<path d="M4850 3317 c0 -2 15 -16 33 -33 l32 -29 -29 33 c-28 30 -36 37 -36
29z"/>
<path d="M2388 2950 c-27 -17 -22 -43 18 -81 20 -18 43 -47 51 -64 18 -34 27
-184 39 -650 7 -312 2 -362 -46 -435 -36 -54 -38 -78 -7 -85 12 -3 121 -4 242
-3 l220 3 -1 45 c0 25 -4 312 -9 638 -9 698 5 632 -135 632 -48 0 -147 2 -221
6 -89 3 -140 1 -151 -6z"/>
<path d="M4882 2937 l-22 -13 32 -48 c18 -27 40 -61 50 -75 28 -44 43 -263 43
-636 l0 -340 -38 -89 c-29 -69 -35 -91 -26 -102 9 -11 56 -14 240 -14 222 0
229 1 240 21 6 12 8 31 4 43 -4 11 -13 292 -19 623 -10 556 -12 604 -29 620
-16 16 -42 18 -235 20 -162 2 -223 0 -240 -10z"/>
<path d="M2089 2903 l-24 -28 28 24 c25 23 32 31 24 31 -2 0 -14 -12 -28 -27z"/>
<path d="M3970 2866 c0 -2 8 -10 18 -17 15 -13 16 -12 3 4 -13 16 -21 21 -21
13z"/>
<path d="M3925 2810 c10 -11 20 -20 23 -20 3 0 -3 9 -13 20 -10 11 -20 20 -23
20 -3 0 3 -9 13 -20z"/>
<path d="M3204 2718 l-19 -23 23 19 c21 18 27 26 19 26 -2 0 -12 -10 -23 -22z"/>
<path d="M1969 2703 l-24 -28 28 24 c25 23 32 31 24 31 -2 0 -14 -12 -28 -27z"/>
<path d="M4232 2574 c10 -10 20 -16 22 -13 3 3 -5 11 -17 18 -21 13 -21 12 -5
-5z"/>
<path d="M2044 2428 l-19 -23 23 19 c12 11 22 21 22 23 0 8 -8 2 -26 -19z"/>
<path d="M2355 2430 c10 -11 20 -20 23 -20 3 0 -3 9 -13 20 -10 11 -20 20 -23
20 -3 0 3 -9 13 -20z"/>
<path d="M2010 2343 c0 -5 10 -18 23 -29 l22 -19 -20 25 c-11 14 -21 27 -22
29 -2 2 -3 0 -3 -6z"/>
<path d="M2169 2313 c-13 -16 -12 -17 4 -4 9 7 17 15 17 17 0 8 -8 3 -21 -13z"/>
<path d="M3904 2048 l-19 -23 23 19 c12 11 22 21 22 23 0 8 -8 2 -26 -19z"/>
<path d="M1184 2008 l-19 -23 23 19 c21 18 27 26 19 26 -2 0 -12 -10 -23 -22z"/>
<path d="M1410 2026 c0 -2 8 -10 18 -17 15 -13 16 -12 3 4 -13 16 -21 21 -21
13z"/>
<path d="M1429 1873 c-13 -16 -12 -17 4 -4 9 7 17 15 17 17 0 8 -8 3 -21 -13z"/>
<path d="M3895 1860 c10 -11 20 -20 23 -20 3 0 -3 9 -13 20 -10 11 -20 20 -23
20 -3 0 3 -9 13 -20z"/>
<path d="M1359 1713 l-24 -28 28 24 c25 23 32 31 24 31 -2 0 -14 -12 -28 -27z"/>
<path d="M1364 1658 l-19 -23 23 19 c21 18 27 26 19 26 -2 0 -12 -10 -23 -22z"/>
<path d="M4788 1503 c-49 -16 -63 -33 -28 -33 18 0 20 -7 20 -84 0 -47 -5 -88
-10 -91 -18 -11 -2 -22 32 -23 l33 -1 0 124 c0 69 0 125 0 124 0 0 -21 -7 -47
-16z"/>
<path d="M5118 1505 c-32 -18 -39 -64 -13 -85 13 -11 11 -16 -15 -40 -36 -33
-38 -52 -9 -79 32 -30 72 -35 114 -15 69 32 63 76 -15 136 -47 36 -59 70 -26
76 27 6 42 -13 26 -32 -10 -13 -9 -17 4 -22 24 -9 46 3 46 24 0 41 -66 62
-112 37z m56 -140 c32 -29 30 -45 -6 -63 -58 -28 -107 36 -56 72 29 21 30 20
62 -9z"/>
<path d="M5340 1498 c0 -13 -21 -54 -45 -92 -25 -38 -45 -72 -45 -76 0 -4 23
-5 51 -2 l52 5 -7 -27 c-6 -24 -4 -26 24 -26 27 0 30 3 30 30 0 25 4 30 24 30
28 0 43 17 29 31 -6 6 -15 4 -23 -6 -21 -26 -30 -17 -30 31 0 46 0 46 -22 32
-14 -9 -24 -28 -26 -47 -3 -28 -6 -31 -40 -31 l-36 0 56 58 c66 67 78 105 36
110 -23 3 -28 -1 -28 -20z"/>
<path d="M3241 1484 c-17 -14 -31 -34 -31 -44 0 -10 -5 -22 -10 -25 -8 -5 -7
-11 1 -21 8 -9 10 -34 6 -70 -5 -52 -5 -55 16 -52 20 3 22 10 25 66 2 46 7 62
17 62 8 0 15 5 15 10 0 6 -7 10 -16 10 -11 0 -14 8 -12 33 2 24 7 31 21 29 10
-2 17 3 17 13 0 22 -14 19 -49 -11z"/>
<path d="M3747 1492 c-11 -12 -15 -28 -11 -52 l6 -35 -43 0 c-38 0 -45 -4 -57
-28 -27 -56 7 -97 81 -97 l52 0 0 109 c0 60 -3 112 -6 115 -3 3 -13 -2 -22
-12z m-17 -147 c0 -30 -4 -45 -13 -45 -21 0 -37 22 -37 50 0 31 7 40 32 40 15
0 18 -8 18 -45z"/>
<path d="M4068 1494 c-11 -11 -14 -27 -11 -53 5 -38 5 -38 -26 -33 -42 6 -71
-20 -71 -63 0 -46 26 -65 91 -65 l54 0 -3 115 c-2 63 -6 115 -10 115 -4 0 -15
-7 -24 -16z m-10 -152 c3 -40 2 -43 -20 -40 -19 2 -23 10 -26 46 -3 40 -2 43
20 40 19 -2 23 -10 26 -46z"/>
<path d="M4885 1484 c-34 -37 -34 -96 0 -129 30 -31 75 -33 100 -5 18 20 17
20 -16 20 -40 0 -52 7 -68 38 -15 29 -7 67 15 76 20 8 58 -15 80 -49 48 -73
-46 -184 -108 -128 -13 11 -22 13 -29 6 -33 -33 86 -50 133 -19 52 34 72 111
43 166 -30 57 -108 70 -150 24z"/>
<path d="M1409 1473 c-13 -16 -12 -17 4 -4 9 7 17 15 17 17 0 8 -8 3 -21 -13z"/>
<path d="M1280 1476 c0 -2 8 -10 18 -17 15 -13 16 -12 3 4 -13 16 -21 21 -21
13z"/>
<path d="M3298 1415 c-4 -4 0 -23 8 -42 9 -19 14 -49 12 -67 l-3 -31 58 0 c32
0 62 2 65 5 4 3 7 33 7 68 0 58 -2 62 -22 62 -21 0 -23 -4 -23 -60 0 -53 -2
-60 -20 -60 -16 0 -20 7 -20 38 0 59 -37 111 -62 87z"/>
<path d="M3482 1410 c-4 -3 -7 -33 -7 -67 0 -60 1 -63 24 -63 22 0 23 3 19 48
-7 57 -2 72 23 72 15 0 19 -7 19 -37 0 -55 10 -82 31 -88 31 -10 39 3 22 36
-8 17 -13 46 -11 65 3 29 1 35 -16 39 -26 5 -95 2 -104 -5z"/>
<path d="M3850 1413 c-49 -19 -64 -68 -34 -111 13 -18 25 -22 73 -22 l57 0 -4
63 c-2 34 -6 63 -7 65 -6 7 -71 11 -85 5z m46 -37 c10 -41 1 -71 -21 -71 -15
0 -21 8 -23 33 -2 19 -1 40 2 48 9 22 35 16 42 -10z"/>
<path d="M4172 1413 c-30 -6 -56 -46 -48 -77 10 -42 33 -56 90 -56 l54 0 -3
61 c-3 77 -16 87 -93 72z m46 -66 c2 -34 -1 -47 -10 -47 -34 0 -52 62 -26 88
21 21 33 7 36 -41z"/>
<path d="M4512 1410 c-4 -3 -6 -33 -4 -67 3 -54 6 -63 23 -63 17 0 19 8 19 61
0 57 1 60 23 57 19 -3 22 -10 25 -55 3 -53 21 -80 47 -70 13 5 13 10 -1 42 -8
20 -14 51 -12 68 l3 32 -58 0 c-32 1 -61 -2 -65 -5z"/>
<path d="M4377 1392 c-25 -27 -22 -78 5 -96 32 -22 98 -19 98 5 0 4 -7 6 -15
3 -27 -11 -65 5 -65 26 0 17 7 20 39 20 47 0 55 9 35 38 -19 28 -74 30 -97 4z
m63 -12 c0 -5 -9 -10 -21 -10 -11 0 -17 5 -14 10 3 6 13 10 21 10 8 0 14 -4
14 -10z"/>
</g>
</svg>
